<svg width="16" height="16" viewBox="0 0 16 16" fill="none" xmlns="http://www.w3.org/2000/svg">
<path d="M11.6667 3.33331C12.219 3.33331 12.6667 3.78103 12.6667 4.33331C12.6667 4.8856 12.219 5.33331 11.6667 5.33331C11.1145 5.33331 10.6667 4.8856 10.6667 4.33331C10.6667 3.78103 11.1145 3.33331 11.6667 3.33331Z" stroke="#1D1C20" stroke-linecap="round" stroke-linejoin="round"/>
<path d="M1.84941 7.42925C1.18064 8.17618 1.16625 9.30305 1.78003 10.0958C2.99799 11.6688 4.33108 13.0019 5.90414 14.2198C6.69685 14.8336 7.82372 14.8192 8.57065 14.1505C10.5985 12.3348 12.4556 10.4372 14.2479 8.35191C14.4251 8.14578 14.5359 7.89311 14.5607 7.62238C14.6707 6.4253 14.8967 2.97643 13.9601 2.03981C13.0235 1.10319 9.57459 1.32916 8.37752 1.43915C8.10679 1.46403 7.85412 1.57487 7.64792 1.75205C5.56267 3.54429 3.66513 5.40139 1.84941 7.42925Z" stroke="#1D1C20"/>
<path d="M4.66675 9.33331L6.66675 11.3333" stroke="#1D1C20" stroke-linecap="round" stroke-linejoin="round"/>
</svg>
